# xmcd
#
# Track frame offsets:
# 150
# 13271
# 19860
# 32533
# 45801
# 58209
# 71322
# 74692
# 89688
# 105056
# 121774
# 126245
# 140034
# 149627
# 164766
# 179760
# 197103
# 210124
# 214623
# 227676
# 241771
# 254467
# 261928
#
# Disc length: 3683 seconds
#
# Revision: 1
# Processed by: cddbd v1.5.1PL0 Copyright (c) Steve Scherf et al.
# Submitted via: Axialis_AX_CDPlayer 2.6
#
DISCID=540e6117
DTITLE=Merle Haggard - Same Train, a different time
DYEAR=1900
DGENRE=
TTITLE0=California blues
TTITLE1=Narration
TTITLE2=Hobo's meditation
TTITLE3=Waiting for a train
TTITLE4=Mother, the queen of my heart
TTITLE5=My Carolina sunshine girl
TTITLE6=Narration
TTITLE7=Train whistle blues
TTITLE8=Why should I be lonely
TTITLE9=Jimmie's Texas blues
TTITLE10=Narration
TTITLE11=Peach picking time down in Georgia
TTITLE12=Down the old road to home
TTITLE13=Travellin' blues
TTITLE14=Miss the Mississippi and you
TTITLE15=Frankie and Johnny
TTITLE16=No hard times
TTITLE17=Narration
TTITLE18=Hobo Bill's last ride
TTITLE19=My old pal
TTITLE20=Nobody knows but me
TTITLE21=Narration
TTITLE22=Jimmy Rodgers last blue yodel
EXTD=
EXTT0=
EXTT1=
EXTT2=
EXTT3=
EXTT4=
EXTT5=
EXTT6=
EXTT7=
EXTT8=
EXTT9=
EXTT10=
EXTT11=
EXTT12=
EXTT13=
EXTT14=
EXTT15=
EXTT16=
EXTT17=
EXTT18=
EXTT19=
EXTT20=
EXTT21=
EXTT22=
PLAYORDER=
